<svg width="47" height="17" viewBox="0 0 47 17" fill="none" xmlns="http://www.w3.org/2000/svg">
<path d="M3.936 3.12H3.888V13.008C3.888 14.136 4.008 14.832 4.248 15.12C4.512 15.408 5.136 15.552 6.144 15.576V15.888H0.936V15.576C1.896 15.552 2.52 15.408 2.784 15.12C3.048 14.832 3.192 14.136 3.192 13.008V2.208C2.832 1.752 2.544 1.416 2.304 1.2C1.848 0.744 1.032 0.312 0 0.312V0H3.384L14.184 13.248H14.232V2.976C14.232 1.848 14.088 1.128 13.824 0.816001C13.56 0.504001 12.936 0.336001 11.976 0.312V0H17.184V0.312C16.248 0.336001 15.648 0.504001 15.36 0.816001C15.072 1.128 14.928 1.848 14.928 2.976V16.152H14.592L3.936 3.12Z" fill="white"/>
<path d="M22.1897 4.824C23.4617 4.824 24.6137 5.352 25.5977 6.408C26.5817 7.44 27.0857 8.736 27.0857 10.272C27.0857 11.256 26.9177 12.192 26.5817 13.08C25.9097 14.808 24.3017 16.224 22.1657 16.224C20.8937 16.224 19.7657 15.672 18.7817 14.568C17.7977 13.464 17.2937 12.168 17.2937 10.656C17.2937 9 17.7737 7.632 18.7097 6.504C19.6457 5.376 20.8217 4.824 22.1897 4.824ZM21.9497 5.424C21.0617 5.424 20.3417 5.808 19.7417 6.6C19.1417 7.392 18.8537 8.424 18.8537 9.696C18.8537 11.4 19.1897 12.84 19.8857 13.968C20.5817 15.096 21.4937 15.648 22.5977 15.648C24.9497 15.648 25.5257 12.984 25.5257 11.304C25.5257 7.464 24.0377 5.424 21.9497 5.424Z" fill="white"/>
<path d="M30.4978 7.44L33.1618 13.896L35.8498 7.416C36.0898 6.84 36.2098 6.408 36.2098 6.096C36.2098 5.64 35.9218 5.496 35.0578 5.472V5.16H38.2498V5.472C37.9378 5.472 37.6498 5.568 37.4098 5.76C36.9538 6.144 36.8578 6.432 36.5458 7.176L32.8498 16.224H32.5858L28.6978 6.792C28.2898 5.832 27.9058 5.544 26.9458 5.472V5.16H31.3858V5.472C30.5218 5.472 30.1378 5.616 30.1378 6.216C30.1378 6.432 30.2578 6.84 30.4978 7.44Z" fill="white"/>
<path d="M46.986 9.216H39.33C39.33 12.888 40.89 14.904 43.122 14.904C44.874 14.904 46.05 13.848 46.65 11.76L46.914 11.904C46.698 13.128 46.218 14.136 45.474 14.976C44.73 15.816 43.794 16.224 42.69 16.224C41.346 16.224 40.242 15.696 39.378 14.664C38.538 13.632 38.106 12.288 38.106 10.656C38.106 7.08 40.002 4.824 42.906 4.824C44.13 4.824 45.114 5.232 45.858 6.048C46.602 6.864 46.986 7.92 46.986 9.216ZM39.354 8.616H45.162C45.186 6.672 44.058 5.448 42.402 5.448C41.658 5.448 40.962 5.76 40.362 6.36C39.762 6.96 39.426 7.704 39.354 8.616Z" fill="white"/>
</svg>
